<?xml version="1.0" encoding="UTF-8" standalone="no"?>
<svg xmlns:dc="http://purl.org/dc/elements/1.1/" xmlns:cc="http://creativecommons.org/ns#" xmlns:rdf="http://www.w3.org/1999/02/22-rdf-syntax-ns#" xmlns:svg="http://www.w3.org/2000/svg" xmlns="http://www.w3.org/2000/svg" xmlns:sodipodi="http://sodipodi.sourceforge.net/DTD/sodipodi-0.dtd" xmlns:inkscape="http://www.inkscape.org/namespaces/inkscape" version="1.1" id="Layer_1" x="0px" y="0px" viewBox="0 0 512 520" xml:space="preserve" width="512" height="520" class="" inkscape:version="0.91 r13725" sodipodi:docname="colourfulguys.svg"><metadata id="metadata31357"><rdf:RDF><cc:Work rdf:about=""><dc:format>image/svg+xml</dc:format><dc:type rdf:resource="http://purl.org/dc/dcmitype/StillImage"/><dc:title/></cc:Work></rdf:RDF></metadata><defs id="defs31355"/><sodipodi:namedview pagecolor="#ffffff" bordercolor="#666666" borderopacity="1" objecttolerance="10" gridtolerance="10" guidetolerance="10" inkscape:pageopacity="0" inkscape:pageshadow="2" inkscape:window-width="1916" inkscape:window-height="1035" id="namedview31353" showgrid="false" inkscape:zoom="2.6" inkscape:cx="313.066" inkscape:cy="348.21859" inkscape:window-x="4" inkscape:window-y="1" inkscape:window-maximized="1" inkscape:current-layer="g31227"/><g id="g31227" transform="translate(0,8)"><path style="fill:#344a5e" d="m 141.867,476.623 -12.8,-12.8 57.6,-57.6 0,-126.934 19.2,0 0,129.067 c 0,2.133 -1.067,5.333 -3.2,6.4 l -60.8,61.867 z" data-original="#344A5E" class="" id="path31229" inkscape:connector-curvature="0"/><circle style="fill:#66c6b9" cx="135.467" cy="469.15601" r="42.667" data-original="#66C6B9" class="" id="circle31231"/><path style="fill:#344a5e" d="m 125.867,405.156 -83.2,0 0,-19.2 74.667,0 0,-97.067 19.2,0 0,105.6 c -1.067,6.4 -5.334,10.667 -10.667,10.667 z" data-original="#344A5E" class="" id="path31233" inkscape:connector-curvature="0"/><circle style="fill:#f3705a" cx="42.667" cy="395.556" r="42.667" data-original="#F3705A" class="" id="circle31235"/><path style="fill:#344a5e" d="m 370.133,476.623 -60.8,-60.8 c -2.133,-2.133 -3.2,-4.267 -3.2,-6.4 l 0,-130.134 19.2,0 0,125.867 57.6,57.6 -12.8,13.867 z" data-original="#344A5E" class="" id="path31237" inkscape:connector-curvature="0"/><circle style="fill:#f3705a" cx="376.53299" cy="469.15601" r="42.667" data-original="#F3705A" class="" id="circle31239"/><rect x="246.39999" y="279.289" style="fill:#344a5e" width="19.200001" height="189.867" data-original="#344A5E" class="" id="rect31241"/><circle style="fill:#ffd15c" cx="256" cy="469.15601" r="42.667" data-original="#FFD15C" class="" id="circle31243"/><path style="fill:#344a5e" d="m 469.333,405.156 -84.267,0 c -5.333,0 -9.6,-4.267 -9.6,-9.6 l 0,-105.6 19.2,0 0,97.067 74.667,0 0,18.133 0,0 z" data-original="#344A5E" class="" id="path31245" inkscape:connector-curvature="0"/><circle style="fill:#477c77" cx="469.33301" cy="395.556" r="42.667" data-original="#55C0EB" class="active-path" data-old_color="#467B76" id="circle31247"/><g id="g31249" style="fill:#80c5f2;fill-opacity:1"><path style="fill:#80c5f2;fill-opacity:1" d="m 171.733,160.889 c -2.133,8.533 -7.467,16 -11.733,14.933 -4.267,-1.067 -7.467,-8.533 -5.333,-18.133 2.133,-8.533 7.467,-16 11.733,-14.933 5.333,1.067 7.467,9.6 5.333,18.133 z" data-original="#FFD15C" class="" id="path31251" inkscape:connector-curvature="0"/><path style="fill:#80c5f2;fill-opacity:1" d="m 73.6,160.889 c 2.133,8.533 7.467,16 11.733,14.933 4.267,-1.067 7.467,-8.533 5.333,-18.133 -2.133,-8.533 -7.467,-16 -11.733,-14.933 -4.266,1.067 -7.466,9.6 -5.333,18.133 z" data-original="#FFD15C" class="" id="path31253" inkscape:connector-curvature="0"/></g><g id="g31255" style="fill:#ae4a9e;fill-opacity:1"><circle style="fill:#ae4a9e;fill-opacity:1" cx="121.6" cy="131.02299" data-original="#415A6B" class="" id="ellipse31257" r="46.932999"/><path style="fill:#ae4a9e;fill-opacity:1" d="m 168.533,138.489 c -3.2,25.6 -14.933,46.933 -26.667,46.933 -11.734,0 -18.133,-21.333 -14.933,-46.933 3.2,-25.6 14.933,-46.933 26.667,-46.933 11.734,0 18.133,21.333 14.933,46.933 z" data-original="#415A6B" class="" id="path31259" inkscape:connector-curvature="0"/></g><path style="fill:#344a5e" d="M 245.333,301.689 236.8,262.222 c -3.2,-13.867 -12.8,-25.6 -26.667,-29.867 l -50.133,-16 -37.333,14.933 -37.333,-14.933 -50.133,16 c -13.867,4.267 -23.467,16 -26.667,29.867 L 0,301.689 l 245.333,0 z" data-original="#344A5E" class="" id="path31261" inkscape:connector-curvature="0"/><polygon style="fill:#e8eae9" points="107.733,301.689 136.533,301.689 152.533,236.623 88.533,236.623 " data-original="#E8EAE9" id="polygon31263"/><polygon style="fill:#f3705a" points="137.6,245.156 122.667,231.289 107.733,245.156 115.2,257.956 101.333,301.689 144,301.689 130.133,257.956 " data-original="#F3705A" class="" id="polygon31265"/><g id="g31267"><path style="fill:#f3f3f3" d="m 122.667,231.289 c 0,0 25.6,-17.067 27.733,-32 l 9.6,17.067 -18.133,39.467 -19.2,-24.534 z" data-original="#F3F3F3" class="" id="path31269" inkscape:connector-curvature="0"/><path style="fill:#f3f3f3" d="m 122.667,231.289 c 0,0 -25.6,-17.067 -27.733,-32 l -9.6,17.067 18.133,39.467 19.2,-24.534 z" data-original="#F3F3F3" class="" id="path31271" inkscape:connector-curvature="0"/></g><path style="fill:#52b9e8;fill-opacity:1" d="m 94.933,181.156 0,18.133 c 2.133,14.933 27.733,32 27.733,32 0,0 25.6,-17.067 27.733,-32 l 0,-18.133 -55.466,0 z" data-original="#F7B64C" class="" id="path31273" inkscape:connector-curvature="0"/><path style="fill:#80c5f2;fill-opacity:1" d="M 81.067,138.489 C 80,142.756 80,147.023 80,152.356 c 0,32 19.2,58.667 42.667,58.667 23.467,0 42.667,-26.667 42.667,-58.667 0,-17.067 -5.333,-33.067 -13.867,-43.733 -16,18.133 -39.467,29.866 -70.4,29.866 z" data-original="#FFD15C" class="" id="path31275" inkscape:connector-curvature="0"/><g id="g31277"><polygon style="fill:#415a6b" points="186.667,236.623 154.667,205.689 134.4,301.689 161.067,301.689 186.667,266.489 165.333,251.556 " data-original="#415A6B" class="" id="polygon31279"/><polygon style="fill:#415a6b" points="59.733,236.623 80,251.556 59.733,266.489 84.267,301.689 110.933,301.689 90.667,205.689 " data-original="#415A6B" class="" id="polygon31281"/></g><g id="g31283" style="fill:#5bde40;fill-opacity:1"><path style="fill:#5bde40;fill-opacity:1" d="m 438.4,160.889 c -2.133,8.533 -7.467,16 -11.733,14.933 -4.267,-1.067 -7.467,-8.533 -5.333,-18.133 2.133,-8.533 7.467,-16 11.733,-14.933 4.266,1.067 7.466,9.6 5.333,18.133 z" data-original="#FFD15C" class="" id="path31285" inkscape:connector-curvature="0"/><path style="fill:#5bde40;fill-opacity:1" d="m 340.267,160.889 c 2.133,8.533 7.467,16 11.733,14.933 4.267,-1.067 7.467,-8.533 5.333,-18.133 -2.133,-8.533 -7.467,-16 -11.733,-14.933 -5.333,1.067 -7.467,9.6 -5.333,18.133 z" data-original="#FFD15C" class="" id="path31287" inkscape:connector-curvature="0"/></g><g id="g31289" style="fill:#e78045;fill-opacity:1"><ellipse style="fill:#e78045;fill-opacity:1" cx="382.93301" cy="131.02299" rx="41.599998" ry="46.932999" data-original="#415A6B" class="" id="ellipse31291"/><path style="fill:#e78045;fill-opacity:1" d="m 434.133,138.489 c -4.267,25.6 -20.267,46.933 -36.267,46.933 -16,0 -24.533,-21.333 -20.267,-46.933 4.267,-25.6 20.267,-46.933 36.267,-46.933 16,0 25.601,21.333 20.267,46.933 z" data-original="#415A6B" class="" id="path31293" inkscape:connector-curvature="0"/></g><path style="fill:#344a5e" d="m 512,301.689 -8.533,-39.467 c -3.2,-13.867 -12.8,-25.6 -26.667,-29.867 l -50.133,-16 -37.333,14.933 -37.334,-14.932 -50.133,16 c -13.867,4.267 -23.467,16 -26.667,29.867 l -8.533,39.467 245.333,0 z" data-original="#344A5E" class="" id="path31295" inkscape:connector-curvature="0"/><polygon style="fill:#e8eae9" points="373.333,301.689 403.2,301.689 419.2,236.623 355.2,236.623 " data-original="#E8EAE9" id="polygon31297"/><polygon style="fill:#f3705a" points="404.267,245.156 389.333,231.289 374.4,245.156 381.867,257.956 368,301.689 410.667,301.689 396.8,257.956 " data-original="#F3705A" class="" id="polygon31299"/><g id="g31301"><path style="fill:#f3f3f3" d="m 389.333,231.289 c 0,0 25.6,-17.067 27.733,-32 l 9.6,17.067 -18.133,39.467 -19.2,-24.534 z" data-original="#F3F3F3" class="" id="path31303" inkscape:connector-curvature="0"/><path style="fill:#f3f3f3" d="m 389.333,231.289 c 0,0 -25.6,-17.067 -27.733,-32 l -9.6,17.067 18.133,39.467 19.2,-24.534 z" data-original="#F3F3F3" class="" id="path31305" inkscape:connector-curvature="0"/></g><path style="fill:#60ca59;fill-opacity:1" d="m 361.6,181.156 0,18.133 c 2.133,14.933 27.733,32 27.733,32 0,0 25.6,-17.067 27.733,-32 l 0,-18.133 -55.466,0 z" data-original="#F7B64C" class="" id="path31307" inkscape:connector-curvature="0"/><path style="fill:#5bde40;fill-opacity:1" d="m 406.4,112.889 c -17.067,8.533 -36.267,13.867 -55.467,14.933 -2.133,7.467 -4.267,14.933 -4.267,24.533 0,32 19.2,58.667 42.667,58.667 23.467,0 42.667,-26.666 42.667,-58.666 0,-5.333 0,-9.6 -1.067,-13.867 -10.666,-7.466 -18.133,-16 -24.533,-25.6 z" data-original="#FFD15C" class="" id="path31309" inkscape:connector-curvature="0"/><g id="g31311"><polygon style="fill:#415a6b" points="452.267,236.623 421.333,205.689 401.067,301.689 427.733,301.689 452.267,266.489 432,251.556 " data-original="#415A6B" class="" id="polygon31313"/><polygon style="fill:#415a6b" points="325.333,236.623 346.667,251.556 325.333,266.489 350.933,301.689 377.6,301.689 357.333,205.689 " data-original="#415A6B" class="" id="polygon31315"/></g><rect x="218.66701" y="206.756" style="fill:#ced6e0" width="73.599998" height="94.932999" data-original="#CED6E0" class="" id="rect31317"/><polygon style="fill:#f05540" points="234.667,221.689 245.333,231.289 266.667,231.289 277.333,221.689 256,200.356 " data-original="#F05540" class="" id="polygon31319"/><polygon style="fill:#f3705a" points="232.533,301.689 280.533,301.689 266.667,231.289 245.333,231.289 " data-original="#F3705A" class="" id="polygon31321"/><g id="g31323"><path style="fill:#609791" d="m 404.267,301.689 -11.733,-46.933 c -5.333,-22.4 -22.4,-39.467 -44.8,-44.8 l -35.2,-8.533 c -14.933,19.2 -28.8,57.6 -41.6,100.267 l 133.333,0 0,-10e-4 z" data-original="#8AD7F8" class="" data-old_color="#8AD7F8" id="path31325" inkscape:connector-curvature="0"/><path style="fill:#609791" d="M 241.067,301.689 C 227.2,259.022 213.334,220.622 199.467,201.422 l -35.2,8.533 c -22.4,5.333 -39.467,22.4 -44.8,44.8 l -11.733,46.933 133.333,0.001 0,0 z" data-original="#8AD7F8" class="" data-old_color="#8AD7F8" id="path31327" inkscape:connector-curvature="0"/></g><polygon style="fill:#a74cf7;fill-opacity:1" points="289.067,175.823 289.067,132.089 222.933,132.089 222.933,175.823 256,200.356 " data-original="#F7B64C" class="" id="polygon31329"/><path style="fill:#416b56;fill-opacity:1" d="m 228.267,0.889 c 0,11.733 -7.467,19.2 -16,23.467 -14.933,6.4 -23.467,22.4 -23.467,40.533 l 0,0 c 0,53.333 30.933,92.8 68.267,92.8 29.867,0 55.467,-24.533 64,-61.867 C 325.334,78.755 325.334,61.689 320,45.689 312.533,21.156 293.333,-4.444 228.267,0.889 Z" data-original="#415A6B" class="" id="path31331" inkscape:connector-curvature="0"/><g id="g31333" style="fill:#bd80f2;fill-opacity:1"><path style="fill:#bd80f2;fill-opacity:1" d="m 245.333,45.689 c -12.8,9.6 -27.733,16 -43.733,18.133 -3.2,9.6 -4.267,21.333 -4.267,32 0,46.933 26.667,84.267 58.667,84.267 32,0 58.667,-37.333 58.667,-84.267 0,-4.267 0,-7.467 -1.067,-11.733 -25.6,-4.266 -50.133,-18.133 -68.267,-38.4 z" data-original="#FFD15C" class="" id="path31335" inkscape:connector-curvature="0"/><ellipse transform="matrix(0.2747,-0.9615,0.9615,0.2747,117.1268,383.2041)" style="fill:#bd80f2;fill-opacity:1" cx="312.57199" cy="113.964" rx="20.266001" ry="11.733" data-original="#FFD15C" class="" id="ellipse31337"/><ellipse transform="matrix(0.2747,0.9615,-0.9615,0.2747,254.6134,-108.8889)" style="fill:#bd80f2;fill-opacity:1" cx="199.48399" cy="114.327" rx="20.266001" ry="11.733" data-original="#FFD15C" class="" id="ellipse31339"/></g><g id="g31341"><polygon style="fill:#f3f3f3" points="300.8,195.022 289.067,175.823 256,200.356 275.2,227.022 " data-original="#F3F3F3" class="" id="polygon31343"/><polygon style="fill:#f3f3f3" points="211.2,195.022 222.933,175.823 256,200.356 236.8,227.022 " data-original="#F3F3F3" class="" id="polygon31345"/></g><g id="g31347"><polygon style="fill:#477c77" points="337.067,221.689 295.467,186.489 267.733,301.689 292.267,301.689 331.733,248.356 299.733,230.223 " data-original="#55C0EB" class="active-path" data-old_color="#467B76" id="polygon31349"/><polygon style="fill:#477c77" points="216.533,186.489 174.933,221.689 212.267,230.223 180.267,248.356 219.733,301.689 244.267,301.689 " data-original="#55C0EB" class="active-path" data-old_color="#467B76" id="polygon31351"/></g></g></svg>