<?xml version="1.0" encoding="UTF-8" standalone="no"?>
<!DOCTYPE svg PUBLIC "-//W3C//DTD SVG 1.1//EN" "http://www.w3.org/Graphics/SVG/1.1/DTD/svg11.dtd">
<svg viewBox="0 0 1000 1000" xmlns:xlink="http://www.w3.org/1999/xlink" height="1000.0pt" width="1000.0pt" xmlns="http://www.w3.org/2000/svg" version="1.1"><defs>
<path d="M 0.00 0.00 L 1000.00 0.00 L 1000.00 1000.00 L 0.00 1000.00 L 0.00 0.00 Z" id="p0"/>
<path d="M 495.00 102.48 C 505.37 102.75 515.69 103.67 525.99 104.95 C 577.07 111.16 626.90 127.23 672.02 151.98 C 712.38 174.06 748.98 203.04 779.78 237.21 C 811.18 272.04 836.60 312.19 854.42 355.57 C 871.43 396.77 881.57 440.76 884.29 485.24 C 885.46 498.42 884.87 511.78 884.95 525.00 C 883.36 573.80 873.09 622.29 854.43 667.43 C 821.00 748.98 760.54 818.82 684.74 863.75 C 636.91 892.29 583.20 910.80 527.95 917.83 C 511.73 919.77 495.35 921.20 479.00 921.00 C 468.47 920.94 458.23 921.26 447.75 920.14 C 393.56 916.79 339.95 902.00 291.47 877.59 C 253.09 858.29 217.89 832.86 187.32 802.68 C 148.66 764.38 117.65 718.45 96.87 668.14 C 74.24 613.60 63.64 554.00 66.33 495.00 C 67.99 453.71 75.81 412.69 89.77 373.78 C 109.48 318.40 141.39 267.50 182.47 225.48 C 223.81 183.08 274.37 149.77 329.74 128.73 C 382.25 108.67 438.86 99.80 495.00 102.48 Z" id="p1"/>
<path d="M 499.99 104.95 C 500.02 112.45 499.98 119.94 500.01 127.43 C 544.77 130.17 588.93 140.89 629.98 158.93 C 680.94 181.18 726.81 214.74 763.63 256.40 C 799.01 296.12 825.84 343.32 842.07 393.97 C 858.96 446.42 864.08 502.31 857.70 557.02 C 851.95 606.21 836.46 654.17 812.50 697.51 C 787.58 742.74 753.23 782.79 712.63 814.66 C 663.43 853.29 604.68 879.58 543.07 890.45 C 493.14 899.23 441.43 898.21 391.91 887.26 C 332.67 874.15 276.70 846.72 230.04 807.94 C 181.63 767.78 143.15 715.88 119.37 657.61 C 98.81 607.84 89.21 553.80 90.82 500.00 C 83.34 500.00 75.86 500.01 68.39 499.99 C 69.18 471.29 72.93 442.61 79.78 414.72 C 96.12 347.52 129.98 284.74 177.21 234.21 C 218.01 190.25 268.50 155.46 324.24 133.25 C 379.80 110.89 440.24 101.35 499.99 104.95 Z" id="p2"/>
<path d="M 242.52 409.80 C 251.78 408.63 261.70 409.15 270.53 412.34 C 280.64 415.94 289.04 423.88 293.29 433.73 C 296.06 440.09 297.06 447.10 297.03 454.00 C 297.05 461.55 295.67 469.43 292.19 476.19 C 287.85 484.88 280.11 491.72 271.02 495.11 C 263.47 497.99 254.99 498.76 246.97 498.27 C 237.60 497.71 228.32 495.03 220.82 489.22 C 215.60 485.25 211.74 479.76 209.28 473.71 C 204.16 461.46 204.02 447.18 208.91 434.84 C 211.10 429.17 214.39 424.00 218.96 419.96 C 225.43 414.15 234.00 410.98 242.52 409.80 Z" id="p3"/>
<path d="M 349.16 409.34 C 357.29 409.09 365.47 409.33 373.61 409.25 C 341.01 469.50 308.47 529.80 275.81 590.01 C 267.66 589.99 259.52 590.00 251.37 590.00 C 282.86 531.61 314.36 473.23 345.84 414.83 C 346.88 413.12 347.69 410.64 349.16 409.34 Z" id="p4"/>
<path d="M 445.32 412.32 C 490.86 412.15 536.90 412.29 582.49 412.25 C 582.51 422.89 582.50 433.53 582.50 444.16 C 570.83 454.76 560.44 466.69 552.08 480.07 C 541.35 497.07 533.58 515.94 528.22 535.28 C 524.19 550.47 522.02 565.83 520.79 581.47 C 505.09 581.53 489.39 581.50 473.70 581.49 C 477.19 555.46 483.03 528.22 494.44 504.43 C 503.60 485.45 515.44 468.44 528.54 452.01 C 500.77 451.99 473.01 452.01 445.25 451.99 C 445.31 438.78 445.14 425.52 445.32 412.32 Z" id="p5"/>
<path d="M 625.73 412.34 C 662.74 412.13 700.41 412.30 737.49 412.25 C 737.51 424.75 737.51 437.25 737.49 449.75 C 712.30 449.76 687.11 449.74 661.91 449.76 C 660.64 458.11 659.25 466.44 657.96 474.79 C 669.58 469.38 682.16 466.58 695.00 467.86 C 705.15 468.63 715.01 471.74 723.35 477.66 C 733.12 484.51 740.52 494.68 743.56 506.26 C 746.75 518.25 745.98 531.33 741.89 543.01 C 737.41 555.93 729.34 567.36 717.51 574.51 C 702.91 583.56 684.74 584.87 667.99 584.10 C 655.14 583.45 641.83 581.08 630.71 574.26 C 623.31 569.61 616.80 563.25 612.30 555.72 C 608.80 549.96 606.60 543.77 604.61 537.37 C 620.52 535.61 636.43 533.85 652.35 532.16 C 653.60 538.45 655.34 544.34 660.03 548.97 C 665.30 554.44 673.44 556.71 680.79 554.81 C 688.12 553.07 693.71 547.07 695.97 540.01 C 698.25 532.82 698.48 524.89 697.36 517.47 C 696.38 511.67 694.39 506.13 689.79 502.22 C 683.67 496.83 674.71 495.84 667.06 497.95 C 660.53 499.82 655.41 503.96 651.03 509.02 C 637.62 507.12 624.22 505.16 610.81 503.22 C 615.73 473.02 620.66 442.48 625.73 412.34 Z" id="p6"/>
<path d="M 248.46 429.51 C 251.88 428.83 255.63 429.27 258.31 431.69 C 264.02 437.49 264.47 448.36 264.35 456.02 C 264.13 462.39 263.43 469.31 259.71 474.71 C 256.74 479.24 250.05 480.00 245.58 477.42 C 241.64 474.97 239.80 469.57 238.96 465.24 C 237.55 457.10 237.57 448.51 239.48 440.45 C 240.83 435.67 243.09 430.63 248.46 429.51 Z" id="p7"/>
<path d="M 360.49 501.77 C 368.99 500.07 377.77 500.12 386.25 501.89 C 394.76 503.71 402.66 507.99 408.40 514.58 C 415.00 521.84 418.16 531.32 418.76 540.99 C 419.35 549.96 418.16 559.81 413.90 567.84 C 410.14 575.11 404.13 581.15 396.77 584.77 C 389.51 588.50 381.10 589.86 373.00 589.79 C 363.01 589.89 352.50 587.58 344.23 581.75 C 338.62 577.97 334.36 572.53 331.64 566.37 C 326.31 554.40 325.78 540.42 330.05 528.05 C 332.02 522.44 334.76 517.25 339.04 513.05 C 344.73 507.09 352.52 503.49 360.49 501.77 Z" id="p8"/>
<path d="M 368.40 521.43 C 373.06 519.45 379.09 520.62 381.90 525.06 C 385.82 531.24 386.34 539.91 386.26 547.02 C 386.05 553.16 385.33 560.60 381.80 565.83 C 378.38 571.24 369.23 571.72 365.13 566.92 C 362.26 563.41 360.97 558.41 360.39 554.00 C 359.60 547.06 359.61 539.84 361.07 532.99 C 362.07 528.52 364.05 523.58 368.40 521.43 Z" id="p9"/></defs><g stroke-width="10pt">
<use stroke="#252a34" xlink:href="#p0"/>
<use stroke="#009567" xlink:href="#p1"/>
<use stroke="#252a34" xlink:href="#p2"/>
<use stroke="#009567" xlink:href="#p3"/>
<use stroke="#009567" xlink:href="#p4"/>
<use stroke="#009567" xlink:href="#p5"/>
<use stroke="#009567" xlink:href="#p6"/>
<use stroke="#252a34" xlink:href="#p7"/>
<use stroke="#009567" xlink:href="#p8"/>
<use stroke="#252a34" xlink:href="#p9"/></g>
<g>
<use xlink:href="#p0" fill="#252a34"/>
<use xlink:href="#p1" fill="#009567"/>
<use xlink:href="#p2" fill="#252a34"/>
<use xlink:href="#p3" fill="#009567"/>
<use xlink:href="#p4" fill="#009567"/>
<use xlink:href="#p5" fill="#009567"/>
<use xlink:href="#p6" fill="#009567"/>
<use xlink:href="#p7" fill="#252a34"/>
<use xlink:href="#p8" fill="#009567"/>
<use xlink:href="#p9" fill="#252a34"/></g></svg>